<svg width="72" height="63" viewBox="0 0 72 63" fill="none" xmlns="http://www.w3.org/2000/svg">
<path d="M70.759 40.4483C69.0773 37.5333 65.4895 36.6363 62.5745 38.206C62.4624 38.3181 62.2381 38.4302 62.126 38.4302L57.5292 41.0089C54.8384 42.4664 52.2597 44.1482 49.7931 45.83C50.2416 45.0451 50.3537 44.0361 50.0173 43.2513C49.681 42.018 48.3356 40.4483 44.1872 40.112C35.7785 39.5514 34.2088 37.9818 34.0967 37.8696C33.3119 36.8606 32.3028 36.0758 31.2938 35.5152C19.6336 28.9003 8.42185 38.7666 7.97338 39.1029L1.47058 42.4664C1.02211 42.6907 0.797879 43.027 0.573645 43.4755C0.461527 43.924 0.461527 44.3724 0.685762 44.8209L9.54302 61.3021C9.76726 61.7506 10.1036 61.9748 10.5521 62.1991C10.6642 62.1991 10.8884 62.1991 11.0005 62.1991C11.3369 62.1991 11.6733 62.087 11.8975 61.9748L18.5124 57.8265H18.6245C19.1851 57.4902 19.8578 57.4902 20.4184 57.8265C28.3787 62.087 33.3119 62.9839 36.1148 62.9839C36.6754 62.9839 37.236 62.9839 37.7966 62.8718C39.4783 62.7597 53.8293 61.6385 68.7409 47.8481L69.9742 46.6148C71.656 45.0451 71.9923 42.4664 70.759 40.4483ZM11.7854 58.275L4.60987 44.8209L8.30973 42.9149L15.3731 55.9205L11.7854 58.275ZM67.5076 44.2603L66.3865 45.3815C51.9233 58.8356 37.6845 59.5083 37.5723 59.5083H37.3481C35.8906 59.7325 31.6301 59.8446 22.1002 54.7993C21.3153 54.3509 20.5305 54.1266 19.6336 54.2388C19.2972 54.2388 18.9609 54.2388 18.5124 54.3509L11.3369 41.0089C14.0277 38.9908 21.988 34.1698 29.7241 38.5423C30.5089 38.9908 31.1817 39.5514 31.7422 40.2241C33.3119 42.1301 37.4602 43.2513 44.1872 43.6997C45.1963 43.6997 46.0932 43.924 46.9902 44.3724C46.9902 44.4846 46.7659 44.933 45.869 45.7178C43.6267 47.6238 37.6845 49.6419 31.1817 47.3996C30.2847 47.0632 29.3878 47.5117 29.0514 48.4087C28.8272 49.0814 29.0514 49.8662 29.612 50.3146C29.8362 50.5389 30.1726 50.651 30.5089 50.7631C31.6301 51.2116 32.7513 51.4358 33.8725 51.5479C45.9811 52.557 51.6991 48.9692 51.6991 48.9692L59.4352 44.1482L64.1441 41.4574L64.2562 41.3453C65.3774 40.5604 67.0592 40.7847 67.844 41.9059C67.844 41.9059 67.9561 42.018 67.9561 42.1301C68.1803 42.8028 68.0682 43.6997 67.5076 44.2603Z" fill="#333333"/>
<path d="M45.3082 16.231C44.1871 16.231 43.2901 17.1279 43.2901 18.1369V18.2491C43.2901 19.3702 44.1871 20.2672 45.3082 20.2672C46.4294 20.2672 47.3263 19.3702 47.3263 18.2491C47.3263 17.6885 47.1021 17.24 46.7658 16.7915C46.3173 16.4552 45.8688 16.231 45.3082 16.231Z" fill="#127BD7"/>
<path d="M37.9089 12.8673C39.03 12.9794 39.927 12.0825 40.0391 10.9613C40.1512 9.84011 39.2543 8.94317 38.1331 8.83105C38.021 8.83105 37.9089 8.83105 37.7967 8.83105C36.6756 8.83105 35.7786 9.72799 35.7786 10.8492C35.8907 11.9703 36.7877 12.8673 37.9089 12.8673Z" fill="#127BD7"/>
<path d="M36.0025 18.3609C36.0025 18.8094 36.2267 19.2578 36.5631 19.5942C37.2358 20.2669 38.357 20.2669 39.0297 19.5942L46.6536 11.8581C47.3263 11.1854 47.3263 10.1763 46.6536 9.50364C46.3173 9.16729 45.8688 9.05518 45.4204 9.05518C44.9719 9.05518 44.5234 9.27941 44.1871 9.50364L36.5631 17.1276C36.2267 17.464 36.0025 17.9124 36.0025 18.3609Z" fill="#127BD7"/>
<path d="M41.6088 28.6759C49.457 28.6759 55.7356 22.2852 55.7356 14.5491C55.7356 6.70093 49.3449 0.422363 41.6088 0.422363C33.8727 0.422363 27.4821 6.70093 27.4821 14.5491C27.4821 22.3973 33.7606 28.6759 41.6088 28.6759ZM41.6088 3.78588C47.551 3.78588 52.3721 8.60692 52.3721 14.5491C52.3721 20.4913 47.551 25.3124 41.6088 25.3124C35.6666 25.3124 30.8456 20.4913 30.8456 14.5491C30.8456 8.60692 35.6666 3.78588 41.6088 3.78588Z" fill="#333333"/>
</svg>
