<svg width="76" height="63" viewBox="0 0 76 63" fill="none" xmlns="http://www.w3.org/2000/svg">
<path d="M50.9904 14.6055L38.1254 41.2295L25.4264 14.6055L14.8854 46.7207H13.0594V50.2983H23.7664V46.8871H22.1064L27.3354 32.4935L36.7974 50.2983H39.3704L48.8324 32.3271L54.1444 46.7207H52.2354V50.2983H63.1914V46.7207H61.2824L50.9904 14.6055Z" fill="#333333"/>
<path d="M1.10938 38.2343L1.10934 38.2301C1.02747 28.4636 4.79268 19.1888 11.6735 12.1267C18.6353 5.06658 27.969 1.12793 37.8764 1.12793C58.2668 1.12793 74.8924 17.7933 74.8924 38.1511C74.8924 46.7741 72.0257 54.9834 66.6195 61.7165L66.6186 61.7176C66.3545 62.0485 66.0718 62.1951 65.7644 62.1951H65.7568L65.7492 62.1954C63.02 62.2783 56.8888 62.2783 49.5794 62.2783C45.0986 62.2783 40.1612 62.2575 35.2951 62.2367L35.0498 62.2357C30.2685 62.2152 25.5647 62.1951 21.4424 62.1951H21.4132H21.384H21.3549H21.3258H21.2967H21.2677H21.2387H21.2097H21.1807H21.1517H21.1228H21.0939H21.065H21.0361H21.0073H20.9784H20.9496H20.9209H20.8921H20.8634H20.8347H20.806H20.7773H20.7487H20.7201H20.6915H20.663H20.6344H20.6059H20.5774H20.549H20.5205H20.4921H20.4637H20.4354H20.407H20.3787H20.3504H20.3221H20.2939H20.2657H20.2375H20.2093H20.1812H20.153H20.1249H20.0969H20.0688H20.0408H20.0128H19.9848H19.9569H19.929H19.9011H19.8732H19.8453H19.8175H19.7897H19.762H19.7342H19.7065H19.6788H19.6511H19.6235H19.5959H19.5683H19.5407H19.5132H19.4857H19.4582H19.4307H19.4033H19.3759H19.3485H19.3211H19.2938H19.2665H19.2392H19.212H19.1847H19.1575H19.1304H19.1032H19.0761H19.049H19.0219H18.9949H18.9679H18.9409H18.9139H18.887H18.8601H18.8332H18.8063H18.7795H18.7527H18.7259H18.6992H18.6725H18.6458H18.6191H18.5925H18.5659H18.5393H18.5127H18.4862H18.4597H18.4333H18.4068H18.3804H18.354H18.3276H18.3013H18.275H18.2487H18.2225H18.1963H18.1701H18.1439H18.1178H18.0916H18.0656H18.0395H18.0135H17.9875H17.9615H17.9356H17.9097H17.8838H17.8579H17.8321H17.8063H17.7805H17.7548H17.7291H17.7034H17.6778H17.6521H17.6265H17.601H17.5754H17.5499H17.5244H17.499H17.4736H17.4482H17.4228H17.3975H17.3722H17.3469H17.3217H17.2965H17.2713H17.2461H17.221H17.1959H17.1708H17.1458H17.1208H17.0958H17.0709H17.0459H17.021H16.9962H16.9714H16.9466H16.9218H16.8971H16.8724H16.8477H16.823H16.7984H16.7738H16.7493H16.7248H16.7003H16.6758H16.6514H16.627H16.6026H16.5783H16.5539H16.5297H16.5054H16.4812H16.457H16.4329H16.4087H16.3847H16.3606H16.3366H16.3126H16.2886H16.2647H16.2408H16.2169H16.1931H16.1692H16.1455H16.1217H16.098H16.0743H16.0507H16.0271H16.0035H15.9799H15.9564H15.9329H15.9094H15.886H15.8626H15.8393H15.8159H15.7926H15.7694H15.7461H15.7229H15.6998H15.6766H15.6535H15.6305H15.6074H15.5844H15.5614H15.5385H15.5156H15.4927H15.4699H15.4471H15.4243H15.4015H15.3788H15.3562H15.3335H15.3109H15.2883H15.2658H15.2433H15.2208H15.1984H15.176H15.1536H15.1312H15.1089H15.0866H15.0644H15.0422H15.02H14.9979H14.9758H14.9537H14.9317H14.9097H14.8877H14.8658H14.8439H14.822H14.8002H14.7784H14.7566H14.7349H14.7132H14.6915H14.6699H14.6483H14.6267H14.6052H14.5837H14.5623H14.5408H14.5195H14.4981H14.4768H14.4555H14.4343H14.4131H14.3919H14.3707H14.3496H14.3286H14.3075H14.2865H14.2656H14.2447H14.2238H14.2029H14.1821H14.1613H14.1405H14.1198H14.0992H14.0785H14.0579H14.0373H14.0168H13.9963H13.9758H13.9554H13.935H13.9147H13.8943H13.8741H13.8538H13.8336H13.8134H13.7933H13.7732H13.7531H13.7331H13.7131H13.6932H13.6732H13.6534H13.6335H13.6137H13.5939H13.5742H13.5545H13.5348H13.5152H13.4956H13.4761H13.4566H13.4371H13.4176H13.3982H13.3789H13.3596H13.3403H13.321H13.3018H13.2826H13.2635H13.2444H13.2253H13.2063H13.1873H13.1684H13.1495H13.1306H13.1117H13.0929H13.0742H13.0555H13.0368H13.0181H12.9995H12.981H12.9624H12.9439H12.9255H12.9071H12.8887H12.8703H12.852H12.8338H12.8156H12.7974H12.7792H12.7611H12.743H12.725H12.707H12.6891H12.6712H12.6533H12.6355H12.6177H12.5999H12.5822H12.5645H12.5469H12.5293H12.5117H12.4942H12.4767H12.4593H12.4419H12.4245H12.4072H12.3899H12.3727H12.3555H12.3383H12.3212H12.3041H12.287H12.27H12.2531H12.2362H12.2193H12.2024H12.1856H12.1689H12.1521H12.1355H12.1188H12.1022H12.0857H12.0691H12.0527H12.0362H12.0198H12.0035H11.9872H11.9709H11.9546H11.9385H11.9223H11.9062H11.8901H11.8741H11.8581H11.8422H11.8263H11.8104H11.7946H11.7788H11.763H11.7473H11.7317H11.7161H11.7005H11.685H11.6695H11.654H11.6386H11.6233H11.6079H11.5926H11.5774H11.5622H11.5471H11.5319H11.5169H11.5018H11.4868H11.4719H11.457H11.4421H11.4273H11.4125H11.3978H11.3831H11.3685H11.3539H11.3393H11.3248H11.3103H11.2959H11.2815H11.2671H11.2528H11.2386H11.2243H11.2102H11.196H11.1819H11.1679H11.1539H11.1399H11.126H11.1121H11.0983H11.0845H11.0708H11.0571H11.0434H11.0298H11.0162H11.0027H10.9892H10.9758H10.9624H10.9491H10.9357H10.9225H10.9093H10.8961H10.883H10.8699H10.8568H10.8438H10.8309H10.818H10.8051H10.7923H10.7795H10.7668H10.7541H10.7415H10.7289H10.7163H10.7038H10.6913H10.6789H10.6665H10.6542H10.6419H10.6297H10.6175H10.6053H10.5932H10.5812H10.5692H10.5572H10.5453H10.5334H10.5216H10.5098H10.4981H10.4864C10.1216 62.1951 9.85811 62.084 9.63216 61.8008L9.63221 61.8008L9.62701 61.7945C4.13902 55.1438 1.10936 46.7696 1.10938 38.2343ZM64.863 59.867L65.1001 59.8615L65.2458 59.6744C70.0461 53.5119 72.5724 46.0818 72.5724 38.2343C72.5724 19.0729 56.9946 3.45593 37.8764 3.45593C28.609 3.45593 19.9339 7.17282 13.3694 13.7532L13.3671 13.7555C6.88354 20.3391 3.34636 29.0349 3.34636 38.2343C3.34636 46.0035 6.0417 53.6002 10.841 59.677L10.9911 59.8671H11.2334H11.246H11.2587H11.2714H11.2842H11.297H11.3098H11.3227H11.3355H11.3485H11.3614H11.3744H11.3874H11.4005H11.4135H11.4266H11.4398H11.453H11.4662H11.4794H11.4927H11.506H11.5193H11.5327H11.5461H11.5595H11.573H11.5864H11.6H11.6135H11.6271H11.6407H11.6544H11.6681H11.6818H11.6955H11.7093H11.7231H11.7369H11.7508H11.7647H11.7786H11.7926H11.8066H11.8206H11.8347H11.8488H11.8629H11.877H11.8912H11.9054H11.9197H11.9339H11.9482H11.9626H11.9769H11.9913H12.0058H12.0202H12.0347H12.0492H12.0638H12.0784H12.093H12.1076H12.1223H12.137H12.1517H12.1665H12.1813H12.1961H12.211H12.2259H12.2408H12.2557H12.2707H12.2857H12.3007H12.3158H12.3309H12.346H12.3612H12.3764H12.3916H12.4069H12.4222H12.4375H12.4528H12.4682H12.4836H12.499H12.5145H12.53H12.5455H12.561H12.5766H12.5922H12.6079H12.6235H12.6392H12.655H12.6707H12.6865H12.7023H12.7182H12.7341H12.75H12.7659H12.7819H12.7979H12.8139H12.8299H12.846H12.8621H12.8783H12.8944H12.9106H12.9269H12.9431H12.9594H12.9757H12.9921H13.0085H13.0249H13.0413H13.0578H13.0743H13.0908H13.1073H13.1239H13.1405H13.1572H13.1738H13.1905H13.2073H13.224H13.2408H13.2576H13.2744H13.2913H13.3082H13.3251H13.3421H13.3591H13.3761H13.3931H13.4102H13.4273H13.4444H13.4616H13.4787H13.496H13.5132H13.5305H13.5478H13.5651H13.5824H13.5998H13.6172H13.6347H13.6521H13.6696H13.6871H13.7047H13.7223H13.7399H13.7575H13.7752H13.7929H13.8106H13.8283H13.8461H13.8639H13.8817H13.8996H13.9175H13.9354H13.9533H13.9713H13.9893H14.0073H14.0254H14.0434H14.0615H14.0797H14.0978H14.116H14.1342H14.1525H14.1708H14.1891H14.2074H14.2257H14.2441H14.2625H14.281H14.2994H14.3179H14.3364H14.355H14.3735H14.3921H14.4108H14.4294H14.4481H14.4668H14.4855H14.5043H14.5231H14.5419H14.5607H14.5796H14.5985H14.6174H14.6364H14.6553H14.6743H14.6934H14.7124H14.7315H14.7506H14.7697H14.7889H14.8081H14.8273H14.8465H14.8658H14.8851H14.9044H14.9238H14.9431H14.9625H14.982H15.0014H15.0209H15.0404H15.0599H15.0795H15.0991H15.1187H15.1383H15.158H15.1777H15.1974H15.2171H15.2369H15.2567H15.2765H15.2963H15.3162H15.3361H15.356H15.3759H15.3959H15.4159H15.4359H15.456H15.4761H15.4962H15.5163H15.5364H15.5566H15.5768H15.597H15.6173H15.6376H15.6579H15.6782H15.6986H15.7189H15.7393H15.7598H15.7802H15.8007H15.8212H15.8417H15.8623H15.8829H15.9035H15.9241H15.9448H15.9655H15.9862H16.0069H16.0276H16.0484H16.0692H16.0901H16.1109H16.1318H16.1527H16.1736H16.1946H16.2156H16.2366H16.2576H16.2787H16.2997H16.3208H16.342H16.3631H16.3843H16.4055H16.4267H16.448H16.4693H16.4906H16.5119H16.5332H16.5546H16.576H16.5974H16.6189H16.6403H16.6618H16.6833H16.7049H16.7264H16.748H16.7696H16.7913H16.8129H16.8346H16.8563H16.8781H16.8998H16.9216H16.9434H16.9652H16.9871H17.009H17.0309H17.0528H17.0747H17.0967H17.1187H17.1407H17.1628H17.1848H17.2069H17.229H17.2512H17.2733H17.2955H17.3177H17.3399H17.3622H17.3845H17.4068H17.4291H17.4514H17.4738H17.4962H17.5186H17.541H17.5635H17.586H17.6085H17.631H17.6536H17.6762H17.6988H17.7214H17.744H17.7667H17.7894H17.8121H17.8348H17.8576H17.8804H17.9032H17.926H17.9489H17.9717H17.9946H18.0175H18.0405H18.0634H18.0864H18.1094H18.1325H18.1555H18.1786H18.2017H18.2248H18.248H18.2711H18.2943H18.3175H18.3407H18.364H18.3873H18.4106H18.4339H18.4572H18.4806H18.504H18.5274H18.5508H18.5743H18.5977H18.6212H18.6448H18.6683H18.6919H18.7154H18.739H18.7627H18.7863H18.81H18.8337H18.8574H18.8811H18.9049H18.9287H18.9525H18.9763H19.0001H19.024H19.0479H19.0718H19.0957H19.1197H19.1436H19.1676H19.1916H19.2157H19.2397H19.2638H19.2879H19.312H19.3362H19.3603H19.3845H19.4087H19.4329H19.4572H19.4815H19.5057H19.5301H19.5544H19.5787H19.6031H19.6275H19.6519H19.6763H19.7008H19.7253H19.7498H19.7743H19.7988H19.8234H19.848H19.8726H19.8972H19.9218H19.9465H19.9712H19.9959H20.0206H20.0453H20.0701H20.0949H20.1197H20.1445H20.1693H20.1942H20.2191H20.244H20.2689H20.2939H20.3188H20.3438H20.3688H20.3938H20.4189H20.444H20.469H20.4941H20.5193H20.5444H20.5696H20.5948H20.62H20.6452H20.6704H20.6957H20.721H20.7463H20.7716H20.7969H20.8223H20.8477H20.8731H20.8985H20.9239H20.9494H20.9749H21.0004H21.0259H21.0514H21.077H21.1026H21.1282H21.1538H21.1794H21.205H21.2307H21.2564H21.2821H21.3078H21.3336H21.3576C35.0488 59.9503 57.716 60.0336 64.863 59.867Z" fill="#127BD7" stroke="#127BD7"/>
</svg>
