<svg width="58" height="75" viewBox="0 0 58 75" fill="none" xmlns="http://www.w3.org/2000/svg">
<path d="M5.47994 0.742465C2.71634 0.742465 0.439941 3.01887 0.439941 5.78247V52.8225C0.439941 55.5861 2.71634 57.8625 5.47994 57.8625H23.1199V71.3025H18.9199C18.8695 71.3025 18.8107 71.3025 18.7603 71.3025C17.8363 71.3445 17.1139 72.1341 17.1559 73.0581C17.1979 73.9821 17.9959 74.7045 18.9199 74.6625H39.08C40.004 74.6793 40.7684 73.9317 40.7852 73.0077C40.802 72.0837 40.0544 71.3193 39.1304 71.3025C39.1136 71.3025 39.0968 71.3025 39.08 71.3025H34.88V57.8625H52.52C55.2836 57.8625 57.56 55.5861 57.56 52.8225V5.78247C57.56 3.01887 55.2836 0.742465 52.52 0.742465C51.596 0.725665 50.8316 1.47327 50.8148 2.39727C50.798 3.32127 51.5456 4.08567 52.4696 4.10247C52.4864 4.10247 52.5032 4.10247 52.52 4.10247C53.4776 4.10247 54.2 4.82487 54.2 5.78247V52.8225C54.2 53.7801 53.4776 54.5025 52.52 54.5025H5.47994C4.52234 54.5025 3.79994 53.7801 3.79994 52.8225V5.78247C3.79994 4.82487 4.52234 4.10247 5.47994 4.10247H45.8C46.724 4.11927 47.4884 3.37167 47.5052 2.44767C47.522 1.52367 46.7744 0.759265 45.8504 0.742465C45.8336 0.742465 45.8168 0.742465 45.8 0.742465H5.47994ZM19.6843 11.6625C17.9371 11.6625 16.5511 12.6621 15.9043 14.2581L15.8791 14.2329L15.8035 14.3925L10.9231 24.3717C10.8979 24.4221 10.8643 24.4725 10.8475 24.5313C9.61274 25.7661 8.83994 27.4797 8.83994 29.3529V39.3825C8.83994 40.3065 9.59594 41.0625 10.5199 41.0625H12.1999V45.2625C12.1999 46.1865 12.9559 46.9425 13.8799 46.9425H20.5999C21.5239 46.9425 22.2799 46.1865 22.2799 45.2625V41.0625H35.72V45.2625C35.72 46.1865 36.476 46.9425 37.4 46.9425H44.12C45.044 46.9425 45.8 46.1865 45.8 45.2625V41.0625H47.48C48.404 41.0625 49.16 40.3065 49.16 39.3825V29.3529C49.16 27.4629 48.3788 25.7325 47.1356 24.4977C47.1188 24.4557 47.102 24.4053 47.0852 24.3633L42.2048 14.3841L42.1292 14.2245L42.104 14.2497C41.4572 12.6537 40.0712 11.6541 38.324 11.6541H19.6843V11.6625ZM19.6843 15.0225H38.324C38.4164 15.0225 39.0212 15.4425 39.0632 15.5517C39.08 15.6021 39.0968 15.6609 39.1136 15.7113L42.4736 22.5909H15.5347L18.8947 15.7113C18.9115 15.6609 18.9283 15.6105 18.9451 15.5517C18.9871 15.4425 19.5919 15.0225 19.6843 15.0225ZM15.4003 25.9425H42.5996C44.3552 25.9425 45.8 27.3957 45.8 29.3529V37.7025H12.1999V29.3529C12.1999 27.3957 13.6447 25.9425 15.4003 25.9425ZM15.5599 41.0625H18.9199V43.5825H15.5599V41.0625ZM39.08 41.0625H42.44V43.5825H39.08V41.0625ZM26.4799 57.8625H31.52V71.3025H26.4799V57.8625Z" fill="#333333"/>
<path d="M14.0635 29.2842H18.2608C18.2813 29.2842 18.2915 29.2842 18.3002 29.2842C19.6673 29.2937 20.7733 30.3997 20.7828 31.7668C20.7828 31.7755 20.7828 31.7858 20.7828 31.8063C20.7828 31.8268 20.7828 31.837 20.7828 31.8457C20.7733 33.2129 19.6673 34.3188 18.3002 34.3283C18.2915 34.3284 18.2813 34.3284 18.2608 34.3284H14.0635V29.2842Z" fill="#127BD7"/>
<path d="M44.3394 29.2842H40.1421C40.1216 29.2842 40.1113 29.2842 40.1026 29.2842C38.7355 29.2937 37.6295 30.3997 37.62 31.7668C37.62 31.7755 37.62 31.7858 37.62 31.8063C37.62 31.8268 37.62 31.837 37.62 31.8457C37.6295 33.2129 38.7355 34.3188 40.1026 34.3283C40.1113 34.3284 40.1216 34.3284 40.1421 34.3284H44.3394V29.2842Z" fill="#127BD7"/>
</svg>
