<svg width="76" height="78" viewBox="0 0 76 78" fill="none" xmlns="http://www.w3.org/2000/svg">
<path d="M0.580269 71.3069C0.826818 72.7087 1.49155 74.0031 2.48717 75.0202C3.4828 76.0374 4.76275 76.7296 6.15895 77.006C6.4374 77.0602 6.71884 77.0977 7.00177 77.1184H7.4272H14.844C27.4783 77.1184 40.1126 77.0301 51.1657 76.8455L59.1283 76.6929H60.0755H60.541H61.1431C62.3395 76.575 63.4802 76.1288 64.4391 75.4035C65.398 74.6783 66.1379 73.7023 66.5773 72.5832C66.8441 71.8938 66.9881 71.163 67.0027 70.424C67.0027 70.0226 67.0027 69.8219 67.0027 69.533V68.7303L66.8823 65.6881C66.8127 63.9864 66.7378 62.4292 66.6575 61.0164H70.4061H70.7432C70.9675 60.9973 71.1901 60.9624 71.4094 60.9121C72.0692 60.756 72.6879 60.4603 73.2238 60.0449C73.7596 59.6295 74.2002 59.1041 74.5158 58.504C74.7091 58.1018 74.8468 57.6751 74.9252 57.2358C74.9696 57.0187 74.9991 56.7987 75.0135 56.5776V56.2485V54.6431V51.8096L74.9252 46.2871V45.6129V45.4283V45.1313C74.9076 44.9317 74.8781 44.7333 74.8369 44.5373C74.6651 43.7626 74.2944 43.0461 73.7613 42.4583C73.2432 41.8831 72.5851 41.4517 71.8509 41.2061C71.2316 41.0096 70.5804 40.9333 69.9325 40.9814L66.6656 41.0777C66.8421 38.6696 66.9947 35.6836 67.1231 32.2481V31.5739C67.1413 31.2745 67.1413 30.9742 67.1231 30.6749C67.0585 30.0444 66.8988 29.4274 66.6495 28.8447C66.2366 27.9031 65.6081 27.0718 64.8147 26.4179C64.0213 25.7639 63.0853 25.3057 62.0822 25.0801C61.4436 24.9458 60.7923 24.8812 60.1397 24.8875H59.9069C59.9069 24.6868 59.9792 24.4701 60.0113 24.2534C60.0835 23.7958 60.1477 23.3062 60.2039 22.7925L60.2842 21.9898V21.5804C60.2939 21.4066 60.2939 21.2324 60.2842 21.0587C60.2799 20.1716 60.0773 19.2968 59.6912 18.4982C59.3051 17.6996 58.7453 16.9974 58.0527 16.4432C57.3059 15.8425 56.4291 15.4247 55.4921 15.2231C55.2513 15.2231 55.0105 15.1348 54.7697 15.1188C54.5289 15.1027 54.2319 15.1188 54.1115 15.1188H53.2526C49.3286 15.0483 45.4062 15.3331 41.5334 15.9696C38.9407 13.1923 36.051 10.2143 33.1132 7.26848C32.9082 7.06339 32.6648 6.90071 32.3969 6.78971C32.1291 6.67871 31.8419 6.62158 31.552 6.62158C31.262 6.62158 30.9749 6.67871 30.707 6.78971C30.4391 6.90071 30.1957 7.06339 29.9907 7.26848C26.9566 10.3026 23.9786 13.3769 21.3137 16.2265C18.9056 16.0499 15.8795 15.8893 12.444 15.7529L9.66669 15.6485L8.21383 15.6004H7.47536C7.1484 15.5918 6.82124 15.6052 6.49608 15.6405C5.06704 15.7877 3.72666 16.4028 2.68331 17.3904C1.59962 18.4485 0.908812 19.8443 0.724753 21.3476C0.586605 22.6299 0.817757 23.9249 1.39098 25.0801C1.07794 31.1805 0.877263 39.392 0.716726 48.7434C0.620403 54.2659 0.548161 60.1897 0.5 66.3062V68.6099V70.0306V70.44C0.506212 70.7305 0.533036 71.0202 0.580269 71.3069ZM53.2526 19.5095H54.5048C54.5771 19.5095 54.6493 19.5095 54.7296 19.5095C55.0159 19.5617 55.2889 19.6709 55.5323 19.8305C55.7862 19.9946 56.005 20.2075 56.1759 20.457C56.3468 20.7064 56.4663 20.9873 56.5276 21.2834C56.554 21.3832 56.5701 21.4854 56.5758 21.5884V21.9978L56.656 22.8005C56.7122 23.3142 56.7764 23.8038 56.8487 24.2614C56.8487 24.454 56.9129 24.6467 56.945 24.8233C54.4567 24.7671 51.864 24.7269 49.1991 24.6868C47.9629 23.0814 46.3254 21.2112 44.3829 19.068C47.3296 19.3719 50.2903 19.5193 53.2526 19.5095ZM31.5801 11.916C36.5327 16.8124 41.4852 21.4439 45.2258 24.6386C39.7113 24.5744 33.9881 24.5503 28.2168 24.5503C24.7893 24.5503 21.3699 24.5503 17.9986 24.5503C21.7231 21.3958 26.6355 16.7803 31.5801 11.916ZM5.31613 19.9911C5.74224 19.5286 6.30451 19.2137 6.9215 19.0921C7.09108 19.0604 7.26281 19.0417 7.43522 19.0359H8.1737L9.62656 18.9877L12.4039 18.8834C14.8842 18.787 17.1397 18.6747 19.1224 18.5543C17.0193 20.866 15.2213 22.945 13.8808 24.6306H13.3189L9.71486 24.6708H7.94092C7.52609 24.7074 7.10836 24.6939 6.69675 24.6306C6.05139 24.4874 5.48052 24.1135 5.09137 23.5791C4.70422 23.0443 4.51418 22.392 4.55357 21.7329C4.60824 21.084 4.8764 20.4714 5.31613 19.9911ZM5.74958 28.5959C6.47845 28.7632 7.2254 28.8387 7.97302 28.8206H9.74696L13.351 28.8608C18.1672 28.9089 23.192 28.933 28.1927 28.933C38.1942 28.933 48.1957 28.8447 56.937 28.6601L60.1477 28.5879C60.5347 28.5488 60.9246 28.5488 61.3116 28.5879C61.6234 28.644 61.9242 28.7497 62.2026 28.9009C62.7603 29.1966 63.2141 29.656 63.503 30.2173C63.6453 30.4896 63.7454 30.7819 63.8 31.0842C63.8281 31.2408 63.8468 31.399 63.8561 31.5578V32.2321C63.9926 35.6676 64.1451 38.6536 64.3217 41.1018C59.9471 41.2703 56.1905 41.4871 53.4373 41.7519C53.1643 41.7519 52.9556 42.3138 52.9717 42.9319C52.9878 43.55 53.1884 43.9353 53.4373 43.9593C57.2902 44.3286 63.0695 44.6095 69.8442 44.762C70.4141 44.762 70.3258 44.762 70.4542 44.8343C70.5404 44.8751 70.615 44.9369 70.6711 45.0141C70.7272 45.0912 70.763 45.1812 70.7753 45.2757V46.1988L70.687 51.7133V54.5468V56.1522C70.687 56.1522 70.687 56.1522 70.687 56.2003C70.6885 56.2297 70.6885 56.2592 70.687 56.2886C70.6483 56.3461 70.5959 56.393 70.5345 56.4251C70.5052 56.4285 70.4755 56.4285 70.4462 56.4251H67.2595C63.3906 56.4251 59.5297 56.4251 55.7811 56.4973H54.3844H53.6861C53.4453 56.4973 53.2205 56.4973 53.068 56.4973C52.382 56.494 51.7013 56.3774 51.0533 56.1522C49.815 55.7579 48.7241 54.9999 47.9228 53.9769C47.247 52.9744 46.8781 51.7967 46.8609 50.5878C46.8438 49.379 47.1794 48.1913 47.8265 47.1701C48.3565 46.3293 49.0606 45.6119 49.8914 45.0663C50.7223 44.5207 51.6604 44.1597 52.6426 44.0075C52.8673 44.0075 53.052 43.4376 53.0359 42.8275C53.0359 42.2897 52.8031 41.8724 52.5222 41.8643C51.2704 41.8298 50.0262 42.0709 48.878 42.5707C47.466 43.1776 46.2334 44.1366 45.298 45.356C44.7667 46.0369 44.3318 46.7878 44.0057 47.5875C43.6674 48.4468 43.4512 49.3492 43.3635 50.2685C43.1806 52.2897 43.6534 54.3162 44.712 56.0478C45.5892 57.4584 46.7967 58.6342 48.2303 59.4733C49.6638 60.3124 51.2802 60.7898 52.9396 60.8639C53.2526 60.8639 53.4774 60.8639 53.7423 60.8639H54.4406H55.8373C58.6387 60.8639 61.5203 60.9201 64.41 60.9282C64.3297 62.3462 64.2548 63.9061 64.1852 65.6078L64.0648 68.65V69.4527C64.0648 69.7015 64.0648 70.0467 64.0648 70.1912C64.0108 70.5912 63.8828 70.9777 63.6876 71.331C63.3587 72.0388 62.79 72.6075 62.0822 72.9364C61.7197 73.0975 61.3306 73.19 60.9344 73.2093H60.1317H59.1845L51.2218 73.0568C40.1688 72.8721 27.5345 72.7839 14.9002 72.7839H7.31482C7.20789 72.7901 7.10068 72.7901 6.99374 72.7839C6.46125 72.6813 5.9717 72.4216 5.58825 72.0381C5.20481 71.6547 4.94507 71.1651 4.84254 70.6327C4.83386 70.5258 4.83386 70.4184 4.84254 70.3116V70.143V68.6982V66.3945C4.79438 60.278 4.72214 54.3541 4.62582 48.8317C4.48936 40.8048 4.30474 33.693 4.07196 27.9618C4.60217 28.2512 5.16924 28.4672 5.75761 28.6039L5.74958 28.5959Z" fill="#333333"/>
<path d="M53.4053 53.2464C54.7264 53.2464 55.7973 52.1755 55.7973 50.8544C55.7973 49.5333 54.7264 48.4624 53.4053 48.4624C52.0842 48.4624 51.0133 49.5333 51.0133 50.8544C51.0133 52.1755 52.0842 53.2464 53.4053 53.2464Z" fill="#127BD7"/>
<path d="M65.1164 11.9962C67.2837 11.924 70.663 8.52863 70.7352 6.37743C70.4911 6.07258 70.2227 5.78804 69.9325 5.52658C69.7055 5.28417 69.4585 5.06131 69.1941 4.86035C67.0108 4.92457 63.6234 8.29586 63.5753 10.4792C63.8192 10.7892 64.0876 11.0791 64.3779 11.3461C64.6062 11.5823 64.8532 11.7997 65.1164 11.9962Z" fill="#127BD7"/>
<path d="M67.7011 20.2638C67.6891 20.607 67.7052 20.9506 67.7492 21.2912C69.2824 22.7762 73.9139 22.7601 75.447 21.2912C75.4929 20.9078 75.509 20.5213 75.4952 20.1353C75.5063 19.8028 75.4902 19.4699 75.447 19.14C73.9139 17.639 69.2824 17.631 67.7492 19.14C67.7055 19.5129 67.6894 19.8885 67.7011 20.2638Z" fill="#127BD7"/>
<path d="M55.661 8.08702C56.0042 8.09899 56.3478 8.08288 56.6884 8.03886C58.1734 6.50572 58.1573 1.87421 56.6884 0.34108C56.3049 0.295119 55.9185 0.279016 55.5325 0.292919C55.2 0.281839 54.8671 0.297946 54.5372 0.34108C53.0362 1.87421 53.0281 6.50572 54.5372 8.03886C54.9101 8.08261 55.2857 8.09871 55.661 8.08702Z" fill="#127BD7"/>
</svg>
