<svg width="78" height="78" viewBox="0 0 78 78" fill="none" xmlns="http://www.w3.org/2000/svg">
<path d="M21.225 21.293C20.3763 21.293 19.682 21.9891 19.682 22.8398V23.5205C19.682 24.1547 19.1574 24.6806 18.5248 24.6806C17.8922 24.6806 17.3676 24.1702 17.3676 23.5205V22.8398C17.3676 21.9891 16.6732 21.293 15.8246 21.293C14.976 21.293 14.2816 21.9891 14.2816 22.8398V23.5205C14.2816 25.8563 16.1949 27.7744 18.5248 27.7744C20.8547 27.7744 22.7679 25.8717 22.7679 23.5205V22.8398C22.7679 21.9891 22.0736 21.293 21.225 21.293Z" fill="#333333"/>
<path d="M32.0256 27.7587C34.3555 27.7587 36.1917 25.8561 36.1917 23.5048V22.8242C36.1917 21.9734 35.4973 21.2773 34.6487 21.2773C33.8 21.2773 33.1057 21.9734 33.1057 22.8242V23.5048C33.1057 24.1391 32.6583 24.665 32.0256 24.665C31.393 24.665 30.9456 24.1545 30.9456 23.5048V22.8242C30.9456 21.9734 30.2512 21.2773 29.4026 21.2773C28.554 21.2773 27.8596 21.9734 27.8596 22.8242V23.5048C27.8596 25.8561 29.6958 27.7587 32.0256 27.7587Z" fill="#333333"/>
<path d="M69.3809 50.5754C68.0385 49.2296 66.1715 48.518 64.2582 48.6727C63.317 48.7501 62.3141 48.9202 61.2649 49.1987C60.4471 49.4152 59.9533 50.266 60.1694 51.0858C60.3854 51.9057 61.234 52.4007 62.0518 52.1841C62.9158 51.9521 63.749 51.8129 64.4897 51.751C65.4926 51.6737 66.4647 52.0449 67.159 52.7719C67.8533 53.499 68.1928 54.4735 68.0848 55.4635C67.7916 58.2015 66.835 62.409 64.0885 67.3435L61.8666 63.2288C61.4809 62.5173 60.7403 62.0841 59.9225 62.0841C59.1047 62.0996 58.3795 62.5637 58.0092 63.2907L56.0342 67.2507C53.3186 62.3626 52.3928 58.186 52.0842 55.4635C51.9762 54.4735 52.3156 53.4835 53.01 52.7565C53.6426 52.1068 54.5067 51.7355 55.4016 51.7201C55.5559 51.8902 55.7719 52.1841 55.9416 52.4162C57.1297 53.994 59.3516 56.9485 63.6565 56.4071C64.5051 56.2988 65.1069 55.5254 64.9989 54.6746C64.8908 53.8238 64.1194 53.2205 63.2707 53.3288C60.9254 53.6227 59.7219 52.3079 58.4104 50.5444C57.7006 49.6008 57.0371 48.7191 55.9416 48.6263C54.0129 48.4716 52.1459 49.1832 50.8035 50.5754C49.4612 51.9676 48.8131 53.8702 49.0291 55.7729C49.384 59.0677 50.5875 64.2652 54.2444 70.2671C54.661 70.9477 55.4016 71.3499 56.1885 71.319C56.9754 71.288 57.6852 70.824 58.0401 70.1124L59.9842 66.2143L62.1444 70.2052C62.5147 70.8858 63.2244 71.319 63.9959 71.3499C64.0114 71.3499 64.0268 71.3499 64.0576 71.3499C64.8137 71.3499 65.5235 70.9477 65.9092 70.298C69.5815 64.2807 70.785 59.0677 71.1553 55.7574C71.3713 53.8548 70.7233 51.9676 69.3809 50.5754Z" fill="#127BD7"/>
<path d="M59.4905 40.567C53.6427 40.567 48.4429 43.3204 45.0946 47.6207C43.1814 46.4605 41.0058 45.8418 38.7376 45.8418H32.4886V44.1557C38.0433 41.5879 42.0241 36.1893 42.5333 29.8007C44.6318 29.3366 46.2519 27.4495 46.2519 25.2065C46.2519 22.979 44.678 21.1073 42.6722 20.6277V14.1309H44.8478C45.6964 14.1309 46.3907 13.4038 46.3907 12.553C46.3907 5.76227 40.8823 0.208984 34.1241 0.208984H23.0765C20.6849 0.208984 18.5864 1.44648 17.3366 3.28727C11.7665 3.62758 8.8966 7.86602 8.04796 11.857C7.98624 12.1663 7.93995 12.4912 7.93995 12.8315V20.6123C5.93409 21.1073 4.32941 22.9635 4.32941 25.191C4.32941 27.434 5.93409 29.3212 8.04796 29.7852C8.588 36.4059 12.8929 41.9746 18.7562 44.4032V45.8263H12.5071C5.70265 45.8418 0.24054 51.3951 0.24054 58.2168V73.2679C0.24054 74.1187 0.873157 74.7684 1.72179 74.7684H25.3601H49.9241C50.063 74.7684 50.1864 74.7529 50.3099 74.7219C53.0101 76.2998 56.1423 77.1969 59.4905 77.1969C69.5661 77.1969 77.7593 68.983 77.7593 58.882C77.7593 48.7809 69.5661 40.567 59.4905 40.567ZM7.95538 26.413C7.64679 26.1191 7.41534 25.7015 7.41534 25.222C7.41534 24.7424 7.64679 24.3248 7.95538 24.0154V26.413ZM37.1175 59.8874C37.1175 61.094 36.13 62.084 34.9265 62.084C33.723 62.084 32.7355 61.094 32.7355 59.8874C32.7355 58.6809 33.723 57.6909 34.9265 57.6909C36.13 57.6909 37.1175 58.6654 37.1175 59.8874ZM43.2122 25.222C43.2122 25.7015 42.9808 26.1191 42.6722 26.4285V24.0309C42.9808 24.3093 43.2122 24.7424 43.2122 25.222ZM19.6048 5.59211C19.6202 5.5457 19.6511 5.48383 19.6665 5.43742C20.2991 4.19992 21.5952 3.3182 23.0765 3.3182H34.1241C38.6605 3.3182 42.4407 6.72133 43.1814 11.0526H23.0765C20.9626 11.0526 19.2499 9.32008 19.2499 7.18539C19.2499 6.62852 19.3734 6.07164 19.6048 5.59211ZM11.0259 12.847C11.0413 12.7387 11.0568 12.6304 11.0722 12.5221C11.211 11.9034 11.6431 10.2791 12.7386 8.87148C13.6335 7.71133 14.7907 6.95336 16.1948 6.61305C16.1794 6.79867 16.164 6.99977 16.164 7.18539C16.164 9.90789 17.7378 12.2591 20.006 13.3884C16.6269 16.807 12.8775 17.4102 11.0259 17.4566V12.847ZM11.0413 28.3776V20.5504C13.8187 20.4885 19.0956 19.5604 23.5085 14.1463H39.5862V28.3776C39.5862 36.2512 33.1675 42.6552 25.3138 42.6552C17.4601 42.6552 11.0413 36.2357 11.0413 28.3776ZM23.8634 71.6901H3.32648V58.2323C3.32648 53.4215 6.87531 49.4615 11.6585 49.0129V51.7044C8.88116 52.416 6.87531 54.922 6.87531 57.8919V64.6982C6.87531 65.549 7.53878 66.276 8.38741 66.276H10.3161C11.1648 66.276 11.8591 65.5799 11.8591 64.7291C11.8591 63.8784 11.1648 63.1823 10.3161 63.1823H9.96124V57.9229C9.96124 56.0976 11.3808 54.628 13.2015 54.628C15.0222 54.628 16.4417 56.113 16.4417 57.9229V63.1823H15.6394C14.7907 63.1823 14.0964 63.8784 14.0964 64.7291C14.0964 65.5799 14.7907 66.276 15.6394 66.276H18.0618C18.9105 66.276 19.5431 65.549 19.5431 64.6982V57.9229C19.5431 54.9065 17.5372 52.3851 14.7599 51.7044V48.951H19.5894L23.8634 53.437V71.6901ZM21.8421 46.7854V45.3777C22.9222 45.6098 24.1103 45.7335 25.3138 45.7335C26.7333 45.7335 28.1683 45.5634 29.4026 45.2385V46.7545L25.4218 50.6216L21.8421 46.7854ZM26.9339 53.4834L31.5937 48.951H33.4144V54.8291C31.2542 55.4943 29.665 57.5052 29.665 59.8874C29.665 62.7955 32.0257 65.1777 34.9265 65.1777C37.8273 65.1777 40.2034 62.811 40.2034 59.8874C40.2034 57.5052 38.645 55.4943 36.4849 54.8291V48.951H38.7376C40.404 48.951 41.9933 49.3996 43.3974 50.2194C42.0087 52.8027 41.2218 55.7573 41.2218 58.8974C41.2218 63.8784 43.2122 68.3798 46.4216 71.6901H26.9339V53.4834ZM59.4905 74.1341C51.1122 74.1341 44.3077 67.297 44.3077 58.9129C44.3077 50.5288 51.1276 43.6916 59.4905 43.6916C67.8534 43.6916 74.6734 50.5288 74.6734 58.9129C74.6734 67.297 67.8534 74.1341 59.4905 74.1341Z" fill="#333333"/>
</svg>
