<svg width="64" height="81" viewBox="0 0 64 81" fill="none" xmlns="http://www.w3.org/2000/svg">
<path d="M6.91818 44.4554C8.08612 47.1122 9.68602 50.7511 9.78735 52.4701C10.11 57.9515 11.2326 68.1225 15.123 74.6448C15.2626 74.8795 15.4119 75.1417 15.5701 75.4199C16.7629 77.5149 18.3957 80.3831 20.9298 80.6791C21.0578 80.6942 21.1956 80.7031 21.3405 80.7031C22.1973 80.7031 23.3359 80.3929 24.4816 79.1619C27.3348 76.0954 27.4263 70.8904 27.4992 66.7084C27.5161 65.7724 27.5312 64.8889 27.5783 64.1352C27.7054 62.0971 28.3898 55.4264 31.8696 55.1659C31.915 55.1624 31.9567 55.149 32.0003 55.1428C32.0447 55.1499 32.0865 55.1624 32.1318 55.1659C36.0045 55.4557 36.5574 61.3265 36.8436 68.3892C36.9387 70.7233 37.0204 72.74 37.3635 74.2031C37.8959 76.4705 38.6959 78.9423 40.5909 80.0827C41.2255 80.4649 41.9277 80.6578 42.6637 80.6578C43.0423 80.6578 43.4298 80.6062 43.8218 80.5031C46.0972 79.905 47.3905 77.4402 48.3353 75.6412C48.53 75.2706 48.7087 74.9266 48.8784 74.6421C52.7671 68.1207 53.8897 57.9507 54.2123 52.4692C54.3137 50.7493 55.9136 47.1113 57.0815 44.4546C57.7552 42.9222 58.3374 41.5987 58.6832 40.5926C62.0208 30.8785 68.2329 12.7968 56.0087 3.5236C52.8835 1.15218 48.6118 0.232232 43.9854 0.932636C41.5962 1.2935 39.5918 1.85436 37.8231 2.34766C35.8125 2.90941 34.0757 3.39472 32.1461 3.5236C32.0954 3.52715 32.0492 3.54048 32.0003 3.54848C31.9514 3.54137 31.9052 3.52715 31.8545 3.5236C30.7835 3.45249 29.7693 3.26495 28.7374 3.0214C28.6076 2.97785 28.4743 2.93074 28.3445 2.88897C28.1916 2.83919 28.037 2.81786 27.8832 2.81075C27.3294 2.66587 26.7668 2.51299 26.1775 2.34766C24.4087 1.85347 22.4035 1.2935 20.0152 0.932636C15.387 0.230454 11.1171 1.15218 7.99101 3.5236C-4.23228 12.7968 1.97892 30.8785 5.3165 40.5926C5.66226 41.5996 6.24445 42.9231 6.91818 44.4554ZM10.1393 6.35632C13.3169 3.94757 17.3585 4.12623 19.4837 4.44799C21.6569 4.77686 23.4683 5.28261 25.2211 5.77236C26.0611 6.00701 26.8841 6.22833 27.7134 6.42921C31.307 7.63358 34.5593 9.0575 38.4852 11.868C38.9928 12.2315 39.5385 12.6102 40.0994 12.9977C40.4078 13.211 40.7598 13.3124 41.1082 13.3124C41.6726 13.3124 42.2273 13.0448 42.5721 12.5453C43.1303 11.7373 42.9277 10.6307 42.1197 10.0726C41.5748 9.69568 41.046 9.32859 40.5536 8.97661C39.1208 7.9509 37.7697 7.11094 36.472 6.38299C37.2382 6.19278 38.0017 5.98834 38.7786 5.77147C40.5305 5.28172 42.3428 4.77597 44.516 4.4471C46.643 4.12534 50.6845 3.94668 53.8595 6.35543C62.8021 13.139 59.8458 26.2636 55.3207 39.4371C55.023 40.3037 54.4425 41.6245 53.8275 43.0235C52.4098 46.2482 50.8028 49.9031 50.6632 52.2603C50.3592 57.4182 49.3273 66.9484 45.8244 72.8209C45.6253 73.1542 45.4137 73.556 45.1862 73.9888C44.6591 74.9941 43.6769 76.8651 42.917 77.0651C42.605 77.1451 42.4912 77.0776 42.4228 77.0358C41.8486 76.69 41.3109 75.4634 40.8238 73.3898C40.558 72.2565 40.478 70.3073 40.3945 68.2443C40.1189 61.4607 39.7421 52.1706 32.3958 51.6195C32.2616 51.6115 32.1301 51.6213 32.0021 51.6408C31.8723 51.6204 31.739 51.6106 31.6021 51.6195C27.1908 51.9501 24.5012 56.317 24.0283 63.9139C23.9759 64.7467 23.9599 65.6693 23.943 66.6453C23.8799 70.2202 23.8025 74.6697 21.8773 76.7389C21.5698 77.0696 21.3769 77.1442 21.3422 77.146C20.8783 77.146 19.9743 75.9727 18.6579 73.6591C18.4873 73.3587 18.3255 73.0751 18.1744 72.8218C14.6724 66.9501 13.6405 57.4191 13.3365 52.2603C13.1978 49.904 11.5908 46.2482 10.1722 43.0235C9.55714 41.6254 8.97673 40.3037 8.67897 39.4371C4.15301 26.2645 1.19763 13.1399 10.1393 6.35632Z" fill="#333333"/>
<path d="M41.1632 30.3587C42.7827 30.3587 44.0955 29.0459 44.0955 27.4264C44.0955 25.807 42.7827 24.4941 41.1632 24.4941C39.5438 24.4941 38.231 25.807 38.231 27.4264C38.231 29.0459 39.5438 30.3587 41.1632 30.3587Z" fill="#333333"/>
<path d="M22.8374 30.3587C24.4569 30.3587 25.7697 29.0459 25.7697 27.4264C25.7697 25.807 24.4569 24.4941 22.8374 24.4941C21.218 24.4941 19.9052 25.807 19.9052 27.4264C19.9052 29.0459 21.218 30.3587 22.8374 30.3587Z" fill="#333333"/>
<path d="M23.1911 36.0683C22.472 36.7367 22.432 37.8619 23.1004 38.581C25.5065 41.1675 28.6672 42.5914 32.0003 42.5914C35.3335 42.5914 38.4942 41.1675 40.9002 38.581C41.5687 37.8619 41.5287 36.7376 40.8096 36.0683C40.0905 35.399 38.9661 35.4399 38.2968 36.1589C36.5716 38.0139 34.3353 39.0352 32.0003 39.0352C29.6653 39.0352 27.429 38.0139 25.7038 36.1589C25.0354 35.4408 23.9101 35.3999 23.1911 36.0683Z" fill="#127BD7"/>
</svg>
