<svg width="80" height="80" viewBox="0 0 80 80" fill="none" xmlns="http://www.w3.org/2000/svg">
<path d="M78.9999 79.1558H0.991325C0.529316 79.1558 0.165039 78.7826 0.165039 78.3295C0.165039 70.5375 6.48213 64.2205 14.2741 64.2205H65.726C73.518 64.2205 79.835 70.5375 79.835 78.3295C79.835 78.7826 79.4619 79.1558 78.9999 79.1558ZM4.66075 75.8418H75.3304C75.8813 75.8418 76.2811 75.3176 76.139 74.7845C74.9573 70.6086 71.1102 67.5434 66.5611 67.5434H13.4389C8.88991 67.5434 5.04279 70.6086 3.86112 74.7845C3.71007 75.3087 4.10989 75.8418 4.66075 75.8418Z" fill="#333333"/>
<path d="M65.4417 67.5436C64.5266 67.5436 63.7803 66.7973 63.7803 65.8821V58.1346C63.7803 57.2195 64.5266 56.4731 65.4417 56.4731C66.3569 56.4731 67.1032 57.2195 67.1032 58.1346V65.8821C67.1032 66.7973 66.3658 67.5436 65.4417 67.5436Z" fill="#333333"/>
<path d="M65.868 45.5361C65.8058 45.5361 65.7525 45.5361 65.6903 45.5272C64.7751 45.4294 64.1177 44.612 64.2154 43.7058C64.3043 42.9062 64.3398 42.0799 64.3398 41.2625C64.3398 34.4834 61.3634 28.0863 56.1835 23.7061C56.068 23.6084 55.9437 23.5106 55.8193 23.404C55.1085 22.8265 54.993 21.787 55.5705 21.0673C56.148 20.3565 57.1875 20.241 57.9072 20.8185C58.0494 20.934 58.1826 21.0495 58.3248 21.165C64.2598 26.1761 67.6627 33.4972 67.6627 41.2536C67.6627 42.1865 67.6094 43.1194 67.5117 44.0434C67.4228 44.9052 66.7032 45.5361 65.868 45.5361Z" fill="#333333"/>
<path d="M41.3817 67.5435C30.1779 67.5435 20.1914 60.4268 16.5309 49.845C16.2288 48.9832 16.6908 48.0325 17.5615 47.7304C18.4322 47.4372 19.374 47.8903 19.6761 48.7611C22.8657 58.0101 31.5906 64.2206 41.3817 64.2206C47.9475 64.2206 54.2113 61.3952 58.5738 56.4819C59.1779 55.7978 60.2352 55.7356 60.9193 56.3398C61.6035 56.944 61.6657 57.9924 61.0615 58.6854C56.0682 64.3094 48.8982 67.5435 41.3817 67.5435Z" fill="#333333"/>
<path d="M41.3817 59.2362C34.9225 59.2362 28.9252 55.7445 25.7356 50.1204C25.2825 49.3208 25.5668 48.3079 26.3575 47.8548C27.1572 47.4017 28.17 47.686 28.6231 48.4767C31.2264 53.0613 36.113 55.9133 41.3817 55.9133C49.4669 55.9133 56.0416 49.3385 56.0416 41.2534C56.0416 36.5267 53.7405 32.0576 49.8845 29.3033C49.1381 28.7702 48.9693 27.7396 49.4935 26.9844C50.0266 26.2381 51.0573 26.0604 51.8125 26.5935C56.5392 29.9608 59.3646 35.4427 59.3646 41.2445C59.3557 51.1777 51.2972 59.2362 41.3817 59.2362Z" fill="#333333"/>
<path d="M62.4031 58.6854C57.9785 58.6854 54.3801 55.087 54.3801 50.6624C54.3801 46.2377 57.9785 42.6394 62.4031 42.6394C66.8277 42.6394 70.4261 46.2377 70.4261 50.6624C70.4261 55.087 66.8277 58.6854 62.4031 58.6854ZM62.4031 45.9623C59.8087 45.9623 57.703 48.0769 57.703 50.6624C57.703 53.2479 59.8176 55.3624 62.4031 55.3624C64.9886 55.3624 67.1032 53.2479 67.1032 50.6624C67.1032 48.068 64.9975 45.9623 62.4031 45.9623Z" fill="#333333"/>
<path d="M39.9957 50.9379H6.80208C5.88695 50.9379 5.14062 50.1916 5.14062 49.2764C5.14062 48.3613 5.88695 47.615 6.80208 47.615H39.9957C40.9108 47.615 41.6572 48.3613 41.6572 49.2764C41.6572 50.1916 40.9108 50.9379 39.9957 50.9379Z" fill="#333333"/>
<path d="M37.5167 36.358L32.8255 31.6668C31.1285 29.9698 31.1285 27.2333 32.8255 25.5363L52.7985 5.56327C54.4955 3.86628 57.232 3.86628 58.929 5.56327L63.6202 10.2544C65.3172 11.9514 65.3172 14.688 63.6202 16.385L43.6472 36.358C41.9591 38.0461 39.2137 38.0461 37.5167 36.358ZM37.5167 31.6668C39.2137 33.3638 41.9502 33.3638 43.6472 31.6668L58.929 16.385C60.626 14.688 60.626 11.9514 58.929 10.2544C57.232 8.55745 54.4955 8.55745 52.7985 10.2544L37.5167 25.5363C35.8285 27.2244 35.8285 29.9698 37.5167 31.6668Z" fill="#127BD7"/>
<path d="M63.6293 12.3689C63.1673 12.3689 62.6964 12.1734 62.3676 11.7914C61.7901 11.1161 61.9056 10.0944 62.5276 9.46354L65.8682 6.12285L63.0606 3.31526L59.3201 7.05576C58.7337 7.64215 57.792 7.78431 57.1256 7.30453C56.2727 6.69148 56.2016 5.49203 56.9124 4.77236L60.2886 1.39614C61.8168 -0.132046 64.3045 -0.132046 65.8327 1.39614L67.7874 3.35079C69.3155 4.87898 69.3155 7.36672 67.7874 8.89491L64.8021 11.8802C64.4822 12.2089 64.0557 12.3689 63.6293 12.3689Z" fill="#127BD7"/>
</svg>
