<svg width="76" height="76" viewBox="0 0 76 76" fill="none" xmlns="http://www.w3.org/2000/svg">
<path d="M35.9012 36.223H40.0926C41.8212 36.223 43.226 34.8181 43.226 33.0896V30.3897H45.9259C47.6544 30.3897 49.0593 28.9849 49.0593 27.2563V23.0649C49.0593 21.3363 47.6544 19.9314 45.9259 19.9314H43.226V17.2316C43.226 15.503 41.8212 14.0981 40.0926 14.0981H35.9012C34.1726 14.0981 32.7677 15.503 32.7677 17.2316V19.9314H30.0679C28.3393 19.9314 26.9344 21.3363 26.9344 23.0649V27.2563C26.9344 28.9849 28.3393 30.3897 30.0679 30.3897H32.7677V33.0896C32.7735 34.8181 34.1726 36.223 35.9012 36.223ZM30.0737 28.0772C29.6227 28.0772 29.2527 27.7072 29.2527 27.2563V23.0649C29.2527 22.6139 29.6227 22.2439 30.0737 22.2439H34.2651C34.716 22.2439 35.086 21.8739 35.086 21.423V17.2316C35.086 16.7806 35.456 16.4106 35.9069 16.4106H40.0984C40.5493 16.4106 40.9193 16.7806 40.9193 17.2316V21.423C40.9193 21.8739 41.2893 22.2439 41.7402 22.2439H45.9316C46.3826 22.2439 46.7526 22.6139 46.7526 23.0649V27.2563C46.7526 27.7072 46.3826 28.0772 45.9316 28.0772H41.7402C41.2893 28.0772 40.9193 28.4472 40.9193 28.8981V33.0896C40.9193 33.5405 40.5493 33.9105 40.0984 33.9105H35.9069C35.456 33.9105 35.086 33.5405 35.086 33.0896V28.8981C35.086 28.4472 34.716 28.0772 34.2651 28.0772H30.0737Z" fill="#127BD7"/>
<path d="M54.1871 60.5H54.1873C60.072 60.5 64.8436 55.7284 64.8436 49.8438C64.8436 43.9591 60.072 39.1875 54.1873 39.1875C48.3027 39.1875 43.5311 43.9591 43.5311 49.8438L43.5311 49.844C43.537 55.7284 48.3026 60.4941 54.1871 60.5ZM54.1873 42C58.5182 42 62.0311 45.5129 62.0311 49.8438C62.0311 54.1746 58.5182 57.6875 54.1873 57.6875C49.8565 57.6875 46.3436 54.1746 46.3436 49.8438C46.3436 45.5129 49.8565 42 54.1873 42Z" fill="#333333" stroke="#333333" stroke-width="0.5"/>
<path d="M11.809 58.2969L12.0328 58.1502L11.8713 57.9369C11.4124 57.3307 11.0157 56.6903 10.6754 56.0154L10.5498 55.7663L10.3159 55.9183C4.34793 59.7975 0.755668 66.4323 0.749817 73.5466V73.5468C0.749817 74.3208 1.38206 74.9531 2.15607 74.9531C2.93 74.9531 3.56219 74.321 3.56232 73.5471C3.56802 67.399 6.66484 61.6674 11.809 58.2969Z" fill="#333333" stroke="#333333" stroke-width="0.5"/>
<path d="M42.8747 73.5468V73.5466C42.8689 66.4323 39.2766 59.7976 33.3146 55.9126L33.0807 55.7601L32.9549 56.0095C32.6148 56.6841 32.2123 57.3304 31.7588 57.9313L31.598 58.1443L31.821 58.2908C36.9597 61.6672 40.0565 67.3989 40.0622 73.547C40.0623 74.3209 40.6945 74.953 41.4685 74.953C42.2425 74.953 42.8747 74.3208 42.8747 73.5468Z" fill="#333333" stroke="#333333" stroke-width="0.5"/>
<path d="M21.8121 61.0781H21.8123C27.697 61.0781 32.4686 56.3065 32.4686 50.4219C32.4686 44.5372 27.697 39.7656 21.8123 39.7656C15.9277 39.7656 11.1561 44.5372 11.1561 50.4219L11.1561 50.4221C11.162 56.3066 15.9276 61.0722 21.8121 61.0781ZM21.8123 42.5781C26.1432 42.5781 29.6561 46.091 29.6561 50.4219C29.6561 54.7527 26.1432 58.2656 21.8123 58.2656C17.4815 58.2656 13.9686 54.7527 13.9686 50.4219C13.9686 46.091 17.4815 42.5781 21.8123 42.5781Z" fill="#333333" stroke="#333333" stroke-width="0.5"/>
<path d="M75.25 73.5468V73.5466C75.2441 66.3327 71.5523 59.6278 65.4559 55.7663L65.2322 55.6246L65.1036 55.8561C64.7349 56.5199 64.3095 57.1493 63.8334 57.7331L63.6546 57.9524L63.8943 58.1029C69.2094 61.4391 72.4318 67.2734 72.4375 73.547C72.4376 74.3209 73.0698 74.953 73.8437 74.953C74.6177 74.953 75.25 74.3208 75.25 73.5468Z" fill="#333333" stroke="#333333" stroke-width="0.5"/>
<path d="M38.67 3.52145L38.6697 3.52175L38.6812 3.52943C45.6008 8.18708 53.7297 10.734 62.0679 10.8679C62.304 10.8736 62.3956 10.9094 62.4381 10.9463C62.4728 10.9764 62.5236 11.0513 62.5343 11.2938L62.5343 11.294C62.955 20.6991 61.6695 29.5687 58.1148 37.7305L58.007 37.9781L58.2622 38.0665C58.9816 38.3158 59.6791 38.6333 60.3429 39.0077L60.5838 39.1436L60.6948 38.8903C64.2788 30.7056 65.8096 21.5456 65.3465 11.1735C65.3495 9.46054 63.9679 8.06175 62.2473 8.05547H62.2464H62.1214C54.3201 7.91717 46.72 5.53316 40.2398 1.1849C39.5828 0.725013 38.8079 0.466123 38.0066 0.4532L38.0066 0.45307L37.9985 0.4532C37.1972 0.466123 36.4222 0.725011 35.7653 1.1849C29.2851 5.53316 21.685 7.91717 13.8837 8.05547L13.7587 8.05547L13.7578 8.05547C12.0371 8.06175 10.6556 9.46054 10.6585 11.1735C10.1954 21.5456 11.7262 30.7056 15.3103 38.8903L15.4212 39.1436L15.6621 39.0077C16.326 38.6333 17.0234 38.3158 17.7429 38.0665L17.9981 37.9781L17.8902 37.7305C14.3356 29.5687 13.0501 20.6991 13.4708 11.294L13.4708 11.2938C13.4814 11.0513 13.5322 10.9764 13.5669 10.9463C13.6095 10.9094 13.701 10.8736 13.9372 10.8679C22.2754 10.734 30.4043 8.18708 37.3239 3.52943L37.3241 3.52974L37.3351 3.52145C37.5303 3.37386 37.7603 3.28375 38.0025 3.26632C38.2447 3.28375 38.4748 3.37386 38.67 3.52145Z" fill="#333333" stroke="#333333" stroke-width="0.5"/>
<path d="M43.2718 55.8576L43.1432 55.6225L42.9176 55.767C41.6483 56.5801 40.4725 57.5219 39.4021 58.5806L39.2388 58.7422L39.386 58.9185C39.8777 59.5073 40.3412 60.1253 40.7765 60.7611L40.9486 61.0125L41.1615 60.7947C42.1598 59.7736 43.2778 58.8666 44.4868 58.1025L44.7281 57.95L44.5452 57.7309C44.0588 57.1484 43.6343 56.5202 43.2718 55.8576Z" fill="#333333" stroke="#333333" stroke-width="0.5"/>
</svg>
