<svg width="29" height="29" viewBox="0 0 29 29" fill="none" xmlns="http://www.w3.org/2000/svg">
<path d="M24.5967 0.25H4.90333C3.80275 0.253079 2.74812 0.691649 1.96988 1.46988C1.19165 2.24812 0.753079 3.30275 0.75 4.40333V24.0967C0.753079 25.1973 1.19165 26.2519 1.96988 27.0301C2.74812 27.8083 3.80275 28.2469 4.90333 28.25H24.5967C25.6973 28.2469 26.7519 27.8083 27.5301 27.0301C28.3083 26.2519 28.7469 25.1973 28.75 24.0967V4.40333C28.7469 3.30275 28.3083 2.24812 27.5301 1.46988C26.7519 0.691649 25.6973 0.253079 24.5967 0.25ZM26.4167 24.0967C26.4167 24.5794 26.2249 25.0423 25.8836 25.3836C25.5423 25.7249 25.0794 25.9167 24.5967 25.9167H4.90333C4.42064 25.9167 3.95772 25.7249 3.6164 25.3836C3.27508 25.0423 3.08333 24.5794 3.08333 24.0967V4.40333C3.08333 3.92064 3.27508 3.45772 3.6164 3.1164C3.95772 2.77508 4.42064 2.58333 4.90333 2.58333H24.5967C25.0794 2.58333 25.5423 2.77508 25.8836 3.1164C26.2249 3.45772 26.4167 3.92064 26.4167 4.40333V24.0967Z" fill="#127BD7"/>
<path d="M14.75 7.25C13.3655 7.25 12.0122 7.66054 10.861 8.42971C9.70986 9.19888 8.81266 10.2921 8.28284 11.5712C7.75303 12.8503 7.61441 14.2578 7.8845 15.6156C8.1546 16.9735 8.82129 18.2208 9.80025 19.1997C10.7792 20.1787 12.0265 20.8454 13.3844 21.1155C14.7422 21.3856 16.1497 21.247 17.4288 20.7172C18.7079 20.1873 19.8011 19.2901 20.5703 18.139C21.3395 16.9878 21.75 15.6345 21.75 14.25C21.75 12.3935 21.0125 10.613 19.6997 9.30025C18.387 7.9875 16.6065 7.25 14.75 7.25ZM14.75 18.9167C13.827 18.9167 12.9248 18.643 12.1573 18.1302C11.3899 17.6174 10.7918 16.8886 10.4386 16.0359C10.0854 15.1831 9.99294 14.2448 10.173 13.3396C10.3531 12.4343 10.7975 11.6028 11.4502 10.9502C12.1028 10.2975 12.9343 9.85307 13.8396 9.673C14.7448 9.49294 15.6831 9.58535 16.5359 9.93856C17.3886 10.2918 18.1174 10.8899 18.6302 11.6573C19.143 12.4248 19.4167 13.327 19.4167 14.25C19.4167 15.4877 18.925 16.6747 18.0498 17.5498C17.1747 18.425 15.9877 18.9167 14.75 18.9167Z" fill="#127BD7"/>
<path d="M22.3333 8.41667C23.2998 8.41667 24.0833 7.63317 24.0833 6.66667C24.0833 5.70017 23.2998 4.91667 22.3333 4.91667C21.3668 4.91667 20.5833 5.70017 20.5833 6.66667C20.5833 7.63317 21.3668 8.41667 22.3333 8.41667Z" fill="#127BD7"/>
</svg>
