<svg width="34" height="34" viewBox="0 0 34 34" fill="none" xmlns="http://www.w3.org/2000/svg">
<path d="M23.9333 26.7243L23.8173 26.5028L23.9333 26.7243C25.1828 26.07 26.158 24.8592 26.7576 23.1658L26.758 23.1646C26.8303 22.9569 26.8305 22.7308 26.7585 22.523C26.6864 22.3152 26.5464 22.1377 26.361 22.0194L26.3593 22.0183L21.2008 18.783L21.1915 18.7737L21.1707 18.76C21.1405 18.7401 21.1093 18.722 21.0771 18.7056C20.978 18.6435 20.8684 18.5996 20.7537 18.5761L20.7309 18.5715L20.7086 18.5711C20.6934 18.568 20.6782 18.5653 20.663 18.5629L20.6446 18.56L20.626 18.5598H20.6196C20.4592 18.5518 20.2992 18.5833 20.1539 18.6518L20.1519 18.6528C20.1021 18.6768 20.0544 18.705 20.0094 18.7371C19.9815 18.754 19.9545 18.7722 19.9285 18.7918L19.8971 18.8153L19.8744 18.8474C19.8712 18.852 19.868 18.8567 19.8648 18.8613C19.8395 18.8847 19.8155 18.9095 19.7928 18.9354L18.7915 19.9468C16.9137 18.955 15.4331 17.3453 14.0884 15.1666L14.989 14.2758C15.0109 14.2559 15.0319 14.235 15.052 14.2131C15.07 14.1963 15.0873 14.1787 15.104 14.1605L15.1688 14.0897L15.1688 14.0826L15.2142 14.0329L15.2144 14.0157L15.2206 14.0092L15.2385 13.9695C15.2497 13.9445 15.2599 13.9191 15.269 13.8931L15.2759 13.8735C15.2824 13.8608 15.2887 13.8479 15.2946 13.8348L15.3046 13.813L15.3103 13.7896C15.3164 13.7644 15.3215 13.739 15.3255 13.7133L15.3285 13.6948L15.3285 13.6881C15.3325 13.6668 15.3357 13.6454 15.3383 13.624L15.3399 13.6103L15.34 13.5966V13.5881C15.3407 13.566 15.3407 13.5439 15.34 13.5217V13.52C15.3407 13.4985 15.3407 13.477 15.34 13.4555C15.3401 13.4477 15.3401 13.4398 15.34 13.432L15.3397 13.4142L15.3369 13.3967C15.3345 13.3814 15.3317 13.3661 15.3285 13.3509L15.3284 13.3345L15.3204 13.3042C15.3102 13.2655 15.2977 13.2275 15.2829 13.1903L15.2828 13.1807L15.264 13.1356C15.2477 13.0963 15.2288 13.0581 15.2075 13.0212L15.1996 13.0056L15.1819 12.9705L15.163 12.9513L11.9406 7.6598C11.9405 7.6596 11.9404 7.6594 11.9402 7.6592C11.8559 7.51906 11.7377 7.4023 11.5964 7.31969C11.5059 7.26672 11.4077 7.22889 11.3059 7.20728V7.15827L11.031 7.18571C10.9594 7.19286 10.8888 7.2079 10.8205 7.23056C9.15499 7.74269 7.94773 8.65714 7.29049 9.87248C6.63506 11.0844 6.56006 12.4907 6.83319 13.8915C7.37813 16.6865 9.30174 19.6609 11.7067 22.1208C14.1112 24.5803 17.0323 26.5732 19.8461 27.1567C21.2577 27.4494 22.687 27.3769 23.9333 26.7243ZM12.1641 14.325L12.1641 14.325L12.1624 14.3267C12.0116 14.4789 11.915 14.6763 11.8874 14.8888C11.8598 15.1012 11.9028 15.3168 12.0097 15.5025L12.0098 15.5027C13.7055 18.4392 15.7327 20.7555 18.5911 22.0154C18.7708 22.0951 18.9702 22.1189 19.1635 22.0835C19.3569 22.0481 19.5352 21.9551 19.675 21.8168L19.6759 21.8159L20.7057 20.786L24.6225 23.234C24.1831 24.1354 23.6364 24.6688 23.0309 24.9859C22.2793 25.3794 21.344 25.4636 20.2431 25.2353C18.033 24.777 15.3233 23.0243 13.0983 20.7484C10.8731 18.4723 9.17378 15.7252 8.74441 13.523C8.53065 12.4267 8.63087 11.5126 9.01439 10.8034C9.32102 10.2364 9.83128 9.73335 10.6924 9.35092L13.1264 13.3727L12.1641 14.325ZM1.34837 31.9296L1.34836 31.9296C1.29678 32.1019 1.29372 32.285 1.33951 32.4589C1.38531 32.6328 1.47819 32.7906 1.60791 32.9151C1.73763 33.0395 1.89918 33.1259 2.07481 33.1644C2.25043 33.203 2.43328 33.1924 2.60324 33.1338L2.60328 33.1338L8.33638 31.1552C10.7868 32.6428 13.6728 33.5 16.75 33.5C25.7174 33.5 33 26.2173 33 17.25C33 8.28262 25.7174 1 16.75 1C7.78615 1 0.5 8.28236 0.5 17.25C0.5 20.4686 1.44217 23.4793 3.10456 26.069L1.34837 31.9296ZM8.99091 29.2594L8.85483 29.4692L8.9909 29.2594C8.86636 29.1786 8.72501 29.1272 8.57756 29.1092C8.4301 29.0912 8.28053 29.1071 8.14021 29.1555L8.22176 29.3918L8.1402 29.1555L3.76778 30.6644L5.1078 26.1924L4.86832 26.1206L5.10781 26.1924C5.14955 26.053 5.15967 25.9061 5.13743 25.7624C5.11519 25.6187 5.06114 25.4817 4.97924 25.3615L4.97923 25.3615C3.36301 22.9901 2.45433 20.2307 2.45433 17.25C2.45433 9.34473 8.84827 2.95433 16.75 2.95433C24.6555 2.95433 31.0457 9.34448 31.0457 17.25C31.0457 25.1555 24.6555 31.5457 16.75 31.5457C13.8837 31.5457 11.2189 30.7051 8.99091 29.2594Z" fill="#127BD7" stroke="#127BD7" stroke-width="0.5"/>
</svg>
